<svg version="1.1" id="Layer_1" xmlns="http://www.w3.org/2000/svg" xmlns:xlink="http://www.w3.org/1999/xlink" x="0px" y="0px"
	 width="100%" viewBox="0 0 512 512" enable-background="new 0 0 512 512" xml:space="preserve">
<path fill="#2196F3" opacity="1.000000" stroke="none" 
	d="
M269.000000,513.000000 
	C261.312408,513.000000 253.624832,513.000000 245.814743,512.747681 
	C239.826233,508.191650 233.519302,504.368195 228.192642,499.477142 
	C219.120743,491.147003 210.706436,482.103546 201.899887,473.478149 
	C200.753693,472.355591 198.693787,471.019653 197.441895,471.330811 
	C186.443222,474.064392 175.529327,477.139923 164.595490,480.133118 
	C156.143906,482.446777 147.834244,485.582764 138.786743,483.023895 
	C125.903816,479.380219 116.456444,472.401184 112.858093,458.710693 
	C109.197502,444.783386 105.134277,430.956604 100.918861,417.186371 
	C100.313568,415.209106 98.143661,412.829651 96.225029,412.276642 
	C82.373222,408.283905 68.425064,404.614502 54.458122,401.035065 
	C37.840210,396.776245 27.769226,378.416687 30.325956,364.165131 
	C33.062054,348.913727 37.859989,334.019836 42.047554,319.050873 
	C42.968189,315.759949 42.432087,313.762238 40.019791,311.416229 
	C30.227667,301.893341 20.498028,292.294464 11.085490,282.399994 
	C8.140086,279.303772 6.326442,275.147308 3.858479,271.570190 
	C3.150724,270.544373 1.966020,269.847626 1.000001,269.000000 
	C1.000000,261.312408 1.000000,253.624832 1.258250,245.808350 
	C5.815139,239.815063 9.631484,233.507721 14.520017,228.185150 
	C22.851709,219.113754 31.913145,210.715698 40.511356,201.882294 
	C41.644096,200.718582 42.714359,198.441071 42.361351,197.047195 
	C38.861763,183.228775 35.083637,169.480377 31.330502,155.726837 
	C25.855461,135.663269 38.506996,116.206764 57.503479,111.871208 
	C70.597733,108.882706 83.483505,104.941391 96.361755,101.089272 
	C98.240166,100.527397 100.440338,98.349228 100.992249,96.476967 
	C104.883331,83.277008 108.421455,69.971992 111.996605,56.680164 
	C116.993797,38.101349 133.796371,27.683279 149.820450,30.354618 
	C165.090118,32.900192 179.970673,37.861984 194.942978,42.045338 
	C198.225708,42.962543 200.229355,42.441235 202.579422,40.023911 
	C212.101196,30.229561 221.677750,20.473749 231.604324,11.095597 
	C235.078461,7.813390 239.640533,5.691695 243.648300,2.955821 
	C244.259216,2.538774 244.557251,1.663392 245.000000,1.000002 
	C252.687576,1.000000 260.375153,1.000000 268.191711,1.258304 
	C286.232605,10.800758 297.511749,27.511353 312.048065,40.574997 
	C312.542450,41.019310 312.928619,41.674198 313.499481,41.923157 
	C314.474915,42.348560 315.675110,42.981186 316.575928,42.744991 
	C327.539185,39.870426 338.469147,36.868195 349.399139,33.867802 
	C357.850861,31.547728 366.121796,28.585316 375.216034,30.936241 
	C387.441254,34.096550 396.783020,40.975269 400.716309,52.893795 
	C405.276581,66.712189 408.141998,81.082809 412.165558,95.092400 
	C412.835480,97.424988 415.312500,100.274864 417.542145,100.952820 
	C430.702667,104.954475 444.000916,108.523788 457.321381,111.973839 
	C476.155884,116.852043 486.152435,134.736450 483.638855,149.832855 
	C481.122772,164.944077 476.223053,179.675629 472.033020,194.478729 
	C470.996155,198.141815 471.616974,200.360443 474.321869,202.969009 
	C484.033569,212.334885 493.627289,221.836349 502.924316,231.611206 
	C505.866028,234.704132 507.676788,238.856354 510.141571,242.429657 
	C510.849243,243.455551 512.033997,244.152313 513.000000,245.000000 
	C513.000000,252.687576 513.000000,260.375153 512.739258,268.195923 
	C503.293732,286.103943 486.706848,297.277893 473.780487,311.716095 
	C473.337769,312.210602 472.598511,312.566254 472.401520,313.128235 
	C471.967072,314.367462 471.288147,315.828491 471.586029,316.970184 
	C475.183075,330.756561 478.915344,344.507996 482.661072,358.255219 
	C487.938477,377.624115 475.838654,397.829773 456.465179,402.144775 
	C443.369629,405.061554 430.506531,409.065613 417.639954,412.918793 
	C415.762085,413.481140 413.560272,415.652344 413.008881,417.521667 
	C409.117493,430.714752 405.491852,443.990540 402.024567,457.303253 
	C397.101135,476.206848 379.287048,486.152008 364.169617,483.634949 
	C348.574432,481.038391 333.346069,476.121948 318.074341,471.806030 
	C315.284027,471.017487 313.932892,471.476257 312.143433,473.287109 
	C302.311249,483.236969 292.533569,493.249359 282.413879,502.901337 
	C279.323181,505.849152 275.165344,507.660858 271.590515,510.129333 
	C270.558380,510.842041 269.854431,512.029968 269.000000,513.000000 
M181.520172,176.014420 
	C177.864655,179.662140 173.740784,182.952286 170.635254,187.019913 
	C157.669861,204.002014 149.454620,222.898056 146.824326,244.378662 
	C144.823578,260.717987 146.436569,276.515503 151.529846,291.878693 
	C158.495621,312.890015 171.072357,330.135101 188.427719,344.023743 
	C206.139313,358.197479 226.412643,365.819183 248.720245,367.868011 
	C262.698059,369.151825 276.590088,367.330353 289.995148,362.928253 
	C320.394379,352.945374 342.956360,333.663483 356.919739,304.888336 
	C366.230927,285.700226 370.021515,265.411316 367.118347,243.950027 
	C365.599579,232.722519 362.796295,221.982101 358.239838,211.687790 
	C350.085022,193.263824 337.471924,178.459991 321.199341,166.684982 
	C303.868103,154.143951 284.460083,147.124664 263.172028,146.177689 
	C254.205994,145.778854 244.995590,146.503555 236.171097,148.171478 
	C215.613571,152.057037 197.187347,160.690369 181.520172,176.014420 
z"/>
<path fill="#000000" opacity="1.000000" stroke="none" 
	d="
M1.000001,269.468658 
	C1.966020,269.847626 3.150724,270.544373 3.858479,271.570190 
	C6.326442,275.147308 8.140086,279.303772 11.085490,282.399994 
	C20.498028,292.294464 30.227667,301.893341 40.019791,311.416229 
	C42.432087,313.762238 42.968189,315.759949 42.047554,319.050873 
	C37.859989,334.019836 33.062054,348.913727 30.325956,364.165131 
	C27.769226,378.416687 37.840210,396.776245 54.458122,401.035065 
	C68.425064,404.614502 82.373222,408.283905 96.225029,412.276642 
	C98.143661,412.829651 100.313568,415.209106 100.918861,417.186371 
	C105.134277,430.956604 109.197502,444.783386 112.858093,458.710693 
	C116.456444,472.401184 125.903816,479.380219 138.786743,483.023895 
	C147.834244,485.582764 156.143906,482.446777 164.595490,480.133118 
	C175.529327,477.139923 186.443222,474.064392 197.441895,471.330811 
	C198.693787,471.019653 200.753693,472.355591 201.899887,473.478149 
	C210.706436,482.103546 219.120743,491.147003 228.192642,499.477142 
	C233.519302,504.368195 239.826233,508.191650 245.346115,512.747681 
	C163.739624,513.000000 82.479256,513.000000 1.000000,513.000000 
	C1.000000,431.979248 1.000000,350.958282 1.000001,269.468658 
z"/>
<path fill="#000000" opacity="1.000000" stroke="none" 
	d="
M513.000000,244.531342 
	C512.033997,244.152313 510.849243,243.455551 510.141571,242.429657 
	C507.676788,238.856354 505.866028,234.704132 502.924316,231.611206 
	C493.627289,221.836349 484.033569,212.334885 474.321869,202.969009 
	C471.616974,200.360443 470.996155,198.141815 472.033020,194.478729 
	C476.223053,179.675629 481.122772,164.944077 483.638855,149.832855 
	C486.152435,134.736450 476.155884,116.852043 457.321381,111.973839 
	C444.000916,108.523788 430.702667,104.954475 417.542145,100.952820 
	C415.312500,100.274864 412.835480,97.424988 412.165558,95.092400 
	C408.141998,81.082809 405.276581,66.712189 400.716309,52.893795 
	C396.783020,40.975269 387.441254,34.096550 375.216034,30.936241 
	C366.121796,28.585316 357.850861,31.547728 349.399139,33.867802 
	C338.469147,36.868195 327.539185,39.870426 316.575928,42.744991 
	C315.675110,42.981186 314.474915,42.348560 313.499481,41.923157 
	C312.928619,41.674198 312.542450,41.019310 312.048065,40.574997 
	C297.511749,27.511353 286.232605,10.800758 268.660339,1.258304 
	C350.260376,1.000000 431.520752,1.000000 513.000000,1.000000 
	C513.000000,82.020760 513.000000,163.041718 513.000000,244.531342 
z"/>
<path fill="#000000" opacity="1.000000" stroke="none" 
	d="
M269.468689,513.000000 
	C269.854431,512.029968 270.558380,510.842041 271.590515,510.129333 
	C275.165344,507.660858 279.323181,505.849152 282.413879,502.901337 
	C292.533569,493.249359 302.311249,483.236969 312.143433,473.287109 
	C313.932892,471.476257 315.284027,471.017487 318.074341,471.806030 
	C333.346069,476.121948 348.574432,481.038391 364.169617,483.634949 
	C379.287048,486.152008 397.101135,476.206848 402.024567,457.303253 
	C405.491852,443.990540 409.117493,430.714752 413.008881,417.521667 
	C413.560272,415.652344 415.762085,413.481140 417.639954,412.918793 
	C430.506531,409.065613 443.369629,405.061554 456.465179,402.144775 
	C475.838654,397.829773 487.938477,377.624115 482.661072,358.255219 
	C478.915344,344.507996 475.183075,330.756561 471.586029,316.970184 
	C471.288147,315.828491 471.967072,314.367462 472.401520,313.128235 
	C472.598511,312.566254 473.337769,312.210602 473.780487,311.716095 
	C486.706848,297.277893 503.293732,286.103943 512.739258,268.664551 
	C513.000000,350.260376 513.000000,431.520752 513.000000,513.000000 
	C431.979248,513.000000 350.958282,513.000000 269.468689,513.000000 
z"/>
<path fill="#000000" opacity="1.000000" stroke="none" 
	d="
M244.531342,1.000002 
	C244.557251,1.663392 244.259216,2.538774 243.648300,2.955821 
	C239.640533,5.691695 235.078461,7.813390 231.604324,11.095597 
	C221.677750,20.473749 212.101196,30.229561 202.579422,40.023911 
	C200.229355,42.441235 198.225708,42.962543 194.942978,42.045338 
	C179.970673,37.861984 165.090118,32.900192 149.820450,30.354618 
	C133.796371,27.683279 116.993797,38.101349 111.996605,56.680164 
	C108.421455,69.971992 104.883331,83.277008 100.992249,96.476967 
	C100.440338,98.349228 98.240166,100.527397 96.361755,101.089272 
	C83.483505,104.941391 70.597733,108.882706 57.503479,111.871208 
	C38.506996,116.206764 25.855461,135.663269 31.330502,155.726837 
	C35.083637,169.480377 38.861763,183.228775 42.361351,197.047195 
	C42.714359,198.441071 41.644096,200.718582 40.511356,201.882294 
	C31.913145,210.715698 22.851709,219.113754 14.520017,228.185150 
	C9.631484,233.507721 5.815139,239.815063 1.258250,245.339722 
	C1.000000,163.739624 1.000000,82.479256 1.000000,1.000000 
	C82.020760,1.000000 163.041718,1.000000 244.531342,1.000002 
z"/>
<path fill="#000000" opacity="1.000000" stroke="none" 
	d="
M181.769287,175.761536 
	C197.187347,160.690369 215.613571,152.057037 236.171097,148.171478 
	C244.995590,146.503555 254.205994,145.778854 263.172028,146.177689 
	C284.460083,147.124664 303.868103,154.143951 321.199341,166.684982 
	C337.471924,178.459991 350.085022,193.263824 358.239838,211.687790 
	C362.796295,221.982101 365.599579,232.722519 367.118347,243.950027 
	C370.021515,265.411316 366.230927,285.700226 356.919739,304.888336 
	C342.956360,333.663483 320.394379,352.945374 289.995148,362.928253 
	C276.590088,367.330353 262.698059,369.151825 248.720245,367.868011 
	C226.412643,365.819183 206.139313,358.197479 188.427719,344.023743 
	C171.072357,330.135101 158.495621,312.890015 151.529846,291.878693 
	C146.436569,276.515503 144.823578,260.717987 146.824326,244.378662 
	C149.454620,222.898056 157.669861,204.002014 170.635254,187.019913 
	C173.740784,182.952286 177.864655,179.662140 181.769287,175.761536 
M255.997513,299.503693 
	C278.388000,277.111115 300.724823,254.664429 323.201019,232.358215 
	C330.121246,225.490341 329.552887,215.268311 323.957153,209.811630 
	C318.037292,204.038849 309.179321,202.194122 301.301605,210.144974 
	C282.298615,229.324356 263.148804,248.358322 244.050446,267.443146 
	C242.783295,268.709381 241.451096,269.910522 239.647552,271.616333 
	C237.315933,269.124725 235.263443,266.739746 233.003723,264.570679 
	C230.753937,262.411102 228.193100,260.574829 225.951126,258.408051 
	C221.397949,254.007553 217.169174,249.252945 212.441193,245.056061 
	C204.795853,238.269531 196.888382,238.877121 190.384491,244.313202 
	C183.770477,249.841293 184.171234,260.786407 190.603348,267.087097 
	C203.186188,279.412811 215.747482,291.763123 228.496216,303.915955 
	C236.555862,311.598907 242.681717,309.750793 250.131882,305.213409 
	C252.207397,303.949310 253.722839,301.765625 255.997513,299.503693 
z"/>
<path fill="#2196F3" opacity="1.000000" stroke="none" 
	d="
M255.746368,299.753784 
	C253.722839,301.765625 252.207397,303.949310 250.131882,305.213409 
	C242.681717,309.750793 236.555862,311.598907 228.496216,303.915955 
	C215.747482,291.763123 203.186188,279.412811 190.603348,267.087097 
	C184.171234,260.786407 183.770477,249.841293 190.384491,244.313202 
	C196.888382,238.877121 204.795853,238.269531 212.441193,245.056061 
	C217.169174,249.252945 221.397949,254.007553 225.951126,258.408051 
	C228.193100,260.574829 230.753937,262.411102 233.003723,264.570679 
	C235.263443,266.739746 237.315933,269.124725 239.647552,271.616333 
	C241.451096,269.910522 242.783295,268.709381 244.050446,267.443146 
	C263.148804,248.358322 282.298615,229.324356 301.301605,210.144974 
	C309.179321,202.194122 318.037292,204.038849 323.957153,209.811630 
	C329.552887,215.268311 330.121246,225.490341 323.201019,232.358215 
	C300.724823,254.664429 278.388000,277.111115 255.746368,299.753784 
z"/>
</svg>